<svg width="344" height="337" viewBox="0 0 344 337" fill="none" xmlns="http://www.w3.org/2000/svg">
<g clip-path="url(#clip0_100_143)">
<mask id="mask0_100_143" style="mask-type:luminance" maskUnits="userSpaceOnUse" x="0" y="0" width="344" height="337">
<path d="M1.52588e-05 0H343.512V337H1.52588e-05V0Z" fill="white"/>
</mask>
<g mask="url(#mask0_100_143)">
<path d="M215.552 42.1477V45.7733H211.847V42.0663H211.881C211.923 42.0663 211.959 42.0712 212.003 42.0712L212.009 42.0663H214.849H214.857L215.282 42.0712V42.0663H215.552V42.1444V42.1477ZM215.552 138.39H213.931V50.1234V48.3277V48.3228V47.8995V47.8946V47.2597V47.2564V46.9015V46.8934V46.7583V46.6996H213.981H213.994H215.552V138.39ZM215.552 139.352C215.552 139.484 215.552 139.617 215.547 139.749L215.552 143.018L211.847 143.021V139.316H215.552V139.352ZM210.92 43.6911H122.651C121.51 43.6911 120.368 43.6748 119.23 43.6894V42.0663H210.92V43.6911ZM210.92 45.7733H122.522C121.425 45.7733 120.328 45.7538 119.23 45.77V44.1518H207.495C208.636 44.1518 209.777 44.1697 210.92 44.1518V45.7733ZM210.92 54.8918C208.363 52.3391 205.807 49.7782 203.252 47.2206C203.07 47.0497 202.897 46.8722 202.727 46.6996H207.624C208.713 46.6996 209.828 46.7696 210.92 46.7159V54.8918ZM210.92 58.2732C209.691 57.0376 208.456 55.8019 207.221 54.5727C204.918 52.2691 202.609 49.9622 200.312 47.6585C199.985 47.3378 199.669 47.0187 199.352 46.6996H202.069C204.734 49.3647 207.401 52.0298 210.071 54.703C210.352 54.9798 210.635 55.263 210.92 55.5463V58.2732ZM210.92 91.4327C209.685 90.1954 208.447 88.9598 207.213 87.7274V58.9326C207.213 57.9362 207.226 56.8748 207.213 55.8687L209.307 57.9655C209.838 58.4979 210.368 59.0286 210.901 59.5643C210.906 59.5691 210.912 59.5708 210.92 59.5805V91.4327ZM210.92 125.51C210.912 125.52 210.906 125.525 210.901 125.532C209.675 126.756 208.446 127.988 207.213 129.214V101.323V97.3604C208.456 96.1247 209.685 94.8939 210.92 93.6566V125.51ZM210.92 129.543C208.257 132.208 205.585 134.875 202.915 137.54L202.069 138.39H199.352L203.044 134.694C205.353 132.392 207.658 130.087 209.957 127.783C210.281 127.461 210.6 127.142 210.92 126.823V129.543ZM210.92 135.095C210.92 136.185 210.849 137.299 210.902 138.39H202.727C205.279 135.834 207.84 133.278 210.396 130.717C210.572 130.549 210.748 130.372 210.92 130.201V135.095ZM210.92 140.936H122.651C121.51 140.936 120.368 140.928 119.23 140.936V139.316H207.624C208.723 139.316 209.82 139.336 210.92 139.324V140.936ZM210.92 143.021H119.23V141.4H207.495C208.636 141.4 209.777 141.416 210.92 141.403V143.021ZM118.301 45.7733H114.599V45.7391C114.599 44.5181 114.615 43.2938 114.599 42.0663H118.301V45.7733ZM118.301 135.095C118.301 136.192 118.281 137.292 118.299 138.39H116.681V50.1234C116.681 48.9837 116.695 47.8458 116.681 46.6996H118.301V135.095ZM118.301 143.021H118.268C117.054 143.021 115.823 143.021 114.599 143.018V139.316H118.301V143.021ZM114.599 46.6996H116.215V134.968C116.215 136.104 116.205 137.248 116.215 138.39H114.599V46.6996ZM119.23 130.201C121.785 132.753 124.346 135.314 126.898 137.872C127.069 138.04 127.25 138.219 127.418 138.39H122.522C121.433 138.39 120.318 138.321 119.23 138.372V130.201ZM119.23 126.823C120.459 128.052 121.69 129.287 122.926 130.517C125.228 132.822 127.536 135.129 129.843 137.431C130.161 137.753 130.475 138.075 130.792 138.39H128.077C125.412 135.723 122.745 133.061 120.08 130.394C119.797 130.11 119.51 129.825 119.23 129.543V126.823ZM119.23 93.6566C120.459 94.8939 121.7 96.1312 122.934 97.3636V126.162C122.934 127.158 122.884 128.174 122.893 129.177L120.837 127.127C120.306 126.593 119.781 126.062 119.248 125.532C119.243 125.525 119.234 125.52 119.23 125.51V93.6566ZM119.23 59.5805C119.234 59.5708 119.243 59.5691 119.248 59.5643C120.476 58.3335 121.702 57.1059 122.934 55.8752V83.7696V87.729C121.697 88.9646 120.459 90.1954 119.23 91.4327V59.5805ZM160.258 50.3985H131.458H128.44L130.496 48.313C131.024 47.7855 131.558 47.2499 132.085 46.7159C132.093 46.7143 132.101 46.7078 132.11 46.6996H163.962C162.724 47.9353 161.494 49.1693 160.258 50.3985ZM169.049 50.869C167.722 52.1958 166.396 53.5178 165.077 54.843C163.752 53.5178 162.422 52.1958 161.1 50.869C162.422 49.5438 163.752 48.2202 165.077 46.8934C166.396 48.2202 167.722 49.5438 169.049 50.869ZM173.85 50.3985H169.891C168.652 49.1645 167.421 47.9353 166.182 46.6996H198.041C198.044 46.7078 198.054 46.7143 198.054 46.7159C199.291 47.9451 200.517 49.1726 201.743 50.3985H173.85ZM172.066 52.8617C171.635 52.8617 171.164 52.8047 170.736 52.8617H170.674C170.632 52.8617 170.596 52.8698 170.565 52.8877C170.537 52.8991 170.505 52.9154 170.484 52.9431C168.676 54.7486 166.876 56.5443 165.077 58.353C163.271 56.5443 161.468 54.7486 159.667 52.9431C159.639 52.9154 159.612 52.8991 159.584 52.8877C159.555 52.8715 159.514 52.8617 159.467 52.8617H127.006C126.674 52.8617 126.315 52.8275 125.965 52.8389C126.473 52.3391 126.97 51.836 127.475 51.3362H156.3C157.608 51.3362 158.951 51.4209 160.253 51.3362C161.754 52.8308 163.249 54.3269 164.746 55.8263C164.847 55.9305 164.965 55.9663 165.077 55.9598C165.186 55.9663 165.303 55.9305 165.404 55.8263C166.904 54.3269 168.392 52.8275 169.898 51.3362H198.686C200 51.3362 201.357 51.4258 202.673 51.3362L204.197 52.8617H172.066ZM123.396 96.517C122.078 95.1967 120.751 93.8699 119.419 92.5479C120.751 91.2211 122.078 89.8943 123.396 88.5723C124.722 89.8943 126.045 91.2211 127.377 92.5479C126.045 93.8699 124.722 95.1967 123.396 96.517ZM125.366 131.653C124.865 131.15 124.363 130.645 123.854 130.145V101.323C123.854 100.014 123.854 98.6856 123.864 97.3669C125.36 95.8658 126.856 94.3713 128.35 92.8752C128.456 92.7726 128.494 92.6586 128.486 92.5479C128.494 92.4372 128.456 92.3167 128.35 92.2174C126.856 90.7197 125.36 89.2203 123.854 87.7208V58.9326C123.854 57.6188 123.854 56.2561 123.864 54.9504C124.372 54.4392 124.876 53.9329 125.387 53.4217V85.554C125.387 85.9854 125.379 86.3745 125.387 86.8808V86.9427C125.387 86.9866 125.396 87.0241 125.417 87.055C125.431 87.0843 125.448 87.1087 125.467 87.1364C127.279 88.9386 129.08 90.7457 130.879 92.5479C129.08 94.3485 127.279 96.1507 125.467 97.9546C125.448 97.9806 125.431 98.0067 125.417 98.0327C125.396 98.0718 125.387 98.1027 125.387 98.1467V130.611C125.387 130.946 125.352 131.306 125.366 131.653ZM173.85 133.76H169.891C168.392 132.262 166.894 130.762 165.404 129.265C165.303 129.165 165.186 129.126 165.077 129.13C164.966 129.125 164.847 129.165 164.746 129.265C163.249 130.762 161.754 132.262 160.248 133.76H131.458C130.146 133.76 128.79 133.673 127.475 133.76C126.965 133.252 126.459 132.742 125.949 132.234H158.078C158.516 132.234 158.98 132.286 159.411 132.234C159.426 132.228 159.451 132.234 159.467 132.234C159.514 132.234 159.555 132.224 159.582 132.206C159.612 132.193 159.639 132.177 159.667 132.156C161.468 130.349 163.271 128.543 165.077 126.744C166.876 128.543 168.676 130.349 170.484 132.156C170.505 132.177 170.537 132.193 170.565 132.206C170.596 132.224 170.632 132.234 170.674 132.234H203.137C203.472 132.234 203.835 132.262 204.174 132.25C203.672 132.753 203.174 133.26 202.673 133.76H173.85ZM169.891 134.681H201.743C201.059 135.375 200.338 136.093 199.653 136.775C199.119 137.31 198.588 137.839 198.054 138.372C198.054 138.38 198.044 138.385 198.041 138.39H166.182C167.421 137.156 168.66 135.925 169.891 134.681ZM163.962 138.39H132.11C132.101 138.385 132.093 138.38 132.085 138.372C130.862 137.146 129.63 135.917 128.404 134.681H156.3C157.608 134.681 158.954 134.775 160.258 134.691C161.494 135.925 162.729 137.156 163.962 138.39ZM161.1 134.225C162.422 132.897 163.752 131.572 165.077 130.251C166.396 131.572 167.722 132.897 169.049 134.225C167.722 135.547 166.396 136.871 165.077 138.198C163.752 136.871 162.422 135.547 161.1 134.225ZM204.296 85.554C204.296 85.9805 204.25 86.4412 204.296 86.8645C202.456 88.7042 200.617 90.5455 198.78 92.3819C198.691 92.4698 198.691 92.6244 198.78 92.7107C200.617 94.552 202.456 96.3917 204.296 98.2281V131.49C204.296 131.565 204.288 131.671 204.283 131.769H172.066H170.755C168.916 129.927 167.076 128.088 165.235 126.246C165.15 126.162 164.997 126.162 164.904 126.246C163.071 128.088 161.227 129.927 159.395 131.769H126.131C126.058 131.769 125.949 131.754 125.851 131.749V99.537C125.851 99.1121 125.897 98.6546 125.851 98.2281C127.694 96.3852 129.532 94.552 131.37 92.7107C131.458 92.6244 131.458 92.4747 131.37 92.3819C129.532 90.5455 127.688 88.7042 125.851 86.8613V53.6008C125.851 53.5227 125.843 53.4217 125.851 53.3241H158.078C158.508 53.3241 158.967 53.3713 159.395 53.3241C161.235 55.1637 163.071 57.0034 164.904 58.8447C164.997 58.9326 165.15 58.9326 165.235 58.8447C167.076 57.0034 168.917 55.1637 170.755 53.3241H204.014C204.094 53.3241 204.197 53.3208 204.296 53.3241V85.554ZM206.751 88.5723C208.073 89.8943 209.4 91.2211 210.722 92.5479C209.4 93.8699 208.073 95.1967 206.751 96.517C205.424 95.1967 204.097 93.8699 202.777 92.5479C204.097 91.2211 205.424 89.8943 206.751 88.5723ZM204.758 53.4136C205.269 53.9215 205.784 54.4441 206.292 54.9504V83.7696C206.292 85.0786 206.199 86.4217 206.285 87.7225C204.789 89.2203 203.29 90.7197 201.794 92.2174C201.686 92.3167 201.655 92.4356 201.655 92.5414C201.655 92.6586 201.686 92.7726 201.794 92.8752C203.29 94.3713 204.789 95.8658 206.292 97.3685V126.162C206.292 127.474 206.197 128.828 206.292 130.145C205.779 130.652 205.271 131.163 204.758 131.671V98.1467C204.758 98.1027 204.749 98.0718 204.731 98.036C204.722 98.0099 204.703 97.9806 204.674 97.9546C202.875 96.1507 201.072 94.3485 199.272 92.5479C201.072 90.7457 202.875 88.9386 204.674 87.1364C204.703 87.1087 204.722 87.0843 204.731 87.055C204.749 87.0241 204.758 86.9866 204.758 86.9427V54.4783C204.758 54.1462 204.775 53.7653 204.758 53.4136ZM119.23 55.5463C121.895 52.8829 124.559 50.2145 127.225 47.5495L128.077 46.6996H130.792C129.568 47.9304 128.334 49.1645 127.099 50.3985C124.798 52.7022 122.493 55.0042 120.188 57.3111C119.864 57.6318 119.544 57.9476 119.23 58.2732V55.5463ZM119.23 49.9948C119.23 49.6333 119.234 49.2654 119.234 48.9024V48.8942V47.6471V47.6423V47.136V47.1294V46.7745V46.7697V46.6996H127.418C124.865 49.2573 122.304 51.8149 119.748 54.3725C119.572 54.5467 119.398 54.7193 119.23 54.8918V49.9948ZM211.847 49.9948C211.847 48.8975 211.861 47.8002 211.847 46.6996H213.468V134.968C213.468 136.104 213.449 137.248 213.468 138.39H211.847V49.9948ZM216.477 43.6308C216.477 43.6259 216.475 43.6194 216.475 43.6097V41.9247C216.475 41.9149 216.477 41.91 216.477 41.9051V41.7798C216.475 41.7195 216.477 41.6642 216.477 41.6039C216.477 41.3549 216.265 41.14 216.016 41.14H118.268C116.951 41.14 115.629 41.1123 114.309 41.14H114.135C113.99 41.14 113.887 41.1937 113.807 41.2751C113.731 41.3483 113.669 41.4591 113.669 41.6039V143.487C113.669 143.736 113.882 143.948 114.135 143.948H211.881C213.2 143.948 214.52 143.948 215.839 143.953C215.896 143.953 215.956 143.948 216.016 143.948C216.265 143.948 216.477 143.736 216.477 143.487V45.7391V45.14V45.1351V43.6308Z" fill="#CFA175"/>
<path d="M165.079 52.2731C164.61 51.8074 164.142 51.3386 163.674 50.8697C164.142 50.3992 164.61 49.9352 165.079 49.4647C165.543 49.9352 166.008 50.3992 166.48 50.8697C166.008 51.3386 165.543 51.8074 165.079 52.2731ZM166.974 50.7053C166.396 50.1338 165.819 49.5526 165.243 48.9796C165.153 48.8884 164.997 48.8835 164.912 48.9796C164.338 49.5526 163.76 50.1338 163.18 50.7053C163.096 50.7964 163.096 50.943 163.18 51.0276C163.76 51.6104 164.338 52.1868 164.912 52.7647C164.965 52.8103 165.015 52.8298 165.067 52.8298H165.079H165.087C165.134 52.8298 165.189 52.8103 165.243 52.7647C165.819 52.1868 166.396 51.6104 166.974 51.0276C167.058 50.943 167.058 50.7964 166.974 50.7053Z" fill="#CFA175"/>
<path d="M205.353 92.5478C205.817 92.079 206.284 91.6101 206.75 91.1429C207.219 91.6101 207.689 92.079 208.155 92.5478C207.689 93.0135 207.219 93.4807 206.75 93.9463C206.284 93.4807 205.817 93.0135 205.353 92.5478ZM208.648 92.3818C208.073 91.8071 207.491 91.2259 206.914 90.6496C206.83 90.5617 206.673 90.5617 206.587 90.6496C206.014 91.2259 205.434 91.8071 204.861 92.3818C204.811 92.429 204.788 92.4827 204.788 92.5332V92.5478V92.5527C204.788 92.6048 204.811 92.6585 204.861 92.7106C205.434 93.287 206.014 93.8665 206.587 94.438C206.673 94.5275 206.83 94.5275 206.914 94.438C207.491 93.8665 208.073 93.287 208.648 92.7106C208.738 92.6244 208.738 92.4746 208.648 92.3818Z" fill="#CFA175"/>
<path d="M165.079 132.822C165.543 133.286 166.008 133.753 166.48 134.224C166.008 134.689 165.543 135.158 165.079 135.629C164.61 135.158 164.142 134.689 163.674 134.224C164.142 133.753 164.61 133.286 165.079 132.822ZM163.18 134.385C163.76 134.961 164.338 135.538 164.912 136.119C164.997 136.205 165.15 136.205 165.243 136.119C165.819 135.538 166.396 134.961 166.974 134.385C167.058 134.297 167.058 134.147 166.974 134.058C166.396 133.483 165.819 132.904 165.243 132.329C165.189 132.278 165.134 132.259 165.087 132.259H165.083H165.067C165.015 132.259 164.965 132.278 164.912 132.329C164.338 132.904 163.76 133.483 163.18 134.058C163.096 134.147 163.096 134.297 163.18 134.385Z" fill="#CFA175"/>
<path d="M124.806 92.5478C124.335 93.0135 123.87 93.4807 123.406 93.9463C122.935 93.4807 122.466 93.0135 121.991 92.5478C122.466 92.079 122.935 91.6101 123.406 91.1429C123.87 91.6101 124.335 92.079 124.806 92.5478ZM123.231 90.6496C122.66 91.2259 122.079 91.8071 121.498 92.3818C121.415 92.4697 121.415 92.6244 121.498 92.7106C122.079 93.287 122.66 93.8665 123.231 94.438C123.328 94.5275 123.479 94.5275 123.567 94.438C124.14 93.8665 124.716 93.287 125.296 92.7106C125.341 92.6585 125.367 92.6048 125.361 92.5527C125.367 92.5527 125.367 92.5511 125.367 92.5511C125.367 92.5413 125.367 92.5381 125.361 92.5381C125.367 92.4876 125.341 92.429 125.296 92.3818C124.716 91.8071 124.14 91.2259 123.567 90.6496C123.479 90.5617 123.328 90.5617 123.231 90.6496Z" fill="#CFA175"/>
<path fill-rule="evenodd" clip-rule="evenodd" d="M144.173 102.875L152.395 99.2804L150.261 97.3463L144.173 102.875ZM147.229 83.5472L142.083 88.2229L141.774 87.9413V84.5827L142.083 84.8643L144.727 82.4581L147.229 83.5472ZM141.774 100.516V103.922L142.856 103.451L150.261 96.7277L152.861 99.0818L155.36 97.9894L150.261 93.3642L142.083 100.793L141.774 100.516ZM150.194 84.8464L142.083 92.2002L141.774 91.925V88.5632L142.083 88.8416L147.693 83.7508L150.194 84.8464ZM157.124 91.0101V87.8745L150.456 84.9636L157.124 91.0101ZM157.124 94.989V91.6336L150.261 85.4048L142.083 92.827L141.774 92.5502V95.9072L142.083 96.1839L150.261 88.7634L157.124 94.989ZM157.124 97.2194V95.6109L150.261 89.3804L142.083 96.8058L141.774 96.5323V99.8926L142.083 100.166L150.261 92.7407L155.815 97.7892L157.124 97.2194ZM189.543 79.3893V105.695L173.253 98.5869V99.5735H157.124V98.4892L140.611 105.695V79.3893L157.124 86.5949V85.6686H173.253V86.5005L189.543 79.3893ZM185.984 102.875L179.889 97.3463L177.755 99.2804L185.984 102.875ZM182.924 83.5472L188.068 88.2229L188.376 87.9413V84.5827L188.068 84.8643L185.423 82.4581L182.924 83.5472ZM188.376 100.516L188.068 100.793L179.889 93.3642L174.795 97.9894L177.296 99.0818L179.889 96.7277L187.298 103.451L188.376 103.922V100.516ZM174.334 97.7892L173.253 97.3122V95.4057L179.889 89.3804L188.068 96.8058L188.376 96.5323V99.8926L188.068 100.166L179.889 92.7407L174.334 97.7892ZM179.959 84.8464L188.068 92.2002L188.376 91.925V88.5632L188.068 88.8416L182.46 83.7508L179.959 84.8464ZM173.253 94.7871V91.4236L179.889 85.4048L188.068 92.827L188.376 92.5502V95.9072L188.068 96.1839L179.889 88.7634L173.253 94.7871ZM173.253 90.805L179.695 84.9636L173.253 87.7687V90.805ZM188.376 81.1703V83.9657L188.068 84.2408L185.878 82.2546L188.376 81.1703ZM141.774 81.1703V83.9657L142.083 84.2408L144.274 82.2546L141.774 81.1703Z" fill="#CFA177"/>
<path fill-rule="evenodd" clip-rule="evenodd" d="M81.6665 210.932C81.6356 210.984 81.6437 211.044 81.6356 211.106V211.455C81.6437 211.484 81.6453 211.51 81.6453 211.536C81.6453 224.85 81.6437 238.162 81.6616 251.481C81.6616 252.07 81.5558 252.267 80.9062 252.258C77.0332 252.223 73.1633 252.223 69.2887 252.258C68.6375 252.267 68.5333 252.069 68.5398 251.476C68.5593 244.772 68.5479 238.063 68.5479 231.355V211.168C68.5479 210.26 68.5479 210.26 69.4677 210.26C73.3392 210.26 77.769 210.255 81.6453 210.268C81.6453 210.268 81.6518 209.994 81.6665 210.932ZM69.3049 178.793C72.9305 178.818 76.5561 178.818 80.1899 178.793C80.7711 178.792 80.916 179.018 80.916 179.542C80.9062 186.676 80.9095 193.807 80.9095 200.941C80.9095 201.62 80.7418 201.808 80.0531 201.808C76.5057 201.82 72.955 201.82 69.414 201.808C68.7091 201.808 68.5479 201.62 68.5479 200.881V190.183C68.5479 186.635 68.5609 183.086 68.5398 179.544C68.53 178.94 68.7254 178.793 69.3049 178.793ZM91.179 213.765C91.179 212.299 91.0439 210.81 90.4431 209.447C89.7773 207.948 88.763 206.74 87.1904 206.134C86.8745 206.017 86.7817 205.879 86.7817 205.577C86.7817 205.262 86.855 205.107 87.1904 204.959C88.9209 204.21 89.6975 202.706 90.2071 201.012C90.3162 200.644 90.3406 200.262 90.3406 199.874C90.3292 194.917 90.3813 189.96 90.3096 185.007C90.2852 183.378 90.3764 181.738 90.1778 180.136C89.8717 177.68 89.3361 175.293 87.5436 173.351C85.73 171.386 83.5827 170.119 80.9599 169.634C80.8688 169.616 80.7581 169.629 80.6555 169.629C73.5231 169.463 66.3859 169.512 59.247 169.505V260.81C59.7078 260.959 60.1864 261.05 60.6667 261.05C66.7815 261.055 72.9012 261.08 79.021 261.041C81.2253 261.028 83.4231 260.743 85.424 259.758C87.6657 258.651 89.4566 257.083 90.2901 254.576C90.8909 252.777 91.2099 250.973 91.2099 249.068C91.179 237.299 91.2034 225.53 91.179 213.765Z" fill="#CFA177"/>
<path fill-rule="evenodd" clip-rule="evenodd" d="M129.342 213.138C129.342 201.433 129.338 189.724 129.358 178.015C129.358 177.499 129.262 177.307 128.699 177.325C127.002 177.363 125.309 177.315 123.613 177.346C121.907 177.374 120.196 177.206 118.498 177.46C117.667 177.582 116.747 177.636 116.125 178.149C115.108 178.981 114.517 180.169 114.328 181.495C114.143 182.808 114.198 184.14 114.198 185.46C114.195 207.45 114.195 229.441 114.195 251.428C114.195 252.367 114.309 252.483 115.238 252.483C118.457 252.488 121.688 252.409 124.902 252.509C127.544 252.595 129.329 250.158 129.332 248.019C129.36 236.388 129.342 224.766 129.342 213.138ZM123.634 261.676H120.313C119.193 261.673 118.074 261.689 116.948 261.663C115.738 261.627 114.515 261.606 113.346 261.281C111.73 260.826 110.292 259.963 108.91 259.014C107.264 257.875 106.312 256.183 105.545 254.436C104.775 252.691 104.27 250.855 104.278 248.888C104.3 226.739 104.285 204.591 104.316 182.442C104.316 180.534 104.402 178.608 105.224 176.816C106.725 173.512 109.032 171.033 112.498 169.766C114.471 169.055 116.506 168.617 118.616 168.505C119.18 168.472 119.745 168.423 120.313 168.389C121.423 168.389 122.524 168.392 123.634 168.392C126.838 168.537 129.973 168.949 132.876 170.439C135.787 171.93 137.716 174.278 138.693 177.363C139.255 179.139 139.569 180.965 139.569 182.851C139.551 204.29 139.559 225.723 139.558 247.162C139.558 249.73 139.022 252.19 137.91 254.51C137.184 256.022 136.062 257.22 134.87 258.358C133.754 259.423 132.616 260.452 131.175 261.064C130.345 261.417 129.493 261.663 128.588 261.663C126.934 261.673 125.286 261.673 123.634 261.676Z" fill="#CFA177"/>
<path fill-rule="evenodd" clip-rule="evenodd" d="M186.297 220.016V179.451V178.964C186.298 178.227 186.196 178.204 185.481 178.198C181.629 178.264 177.836 178.163 173.942 178.217C173.305 178.217 173.173 178.158 173.186 177.556C173.222 175.697 173.204 173.844 173.186 171.987C173.182 171.378 173.191 170.701 173.191 170.118C173.191 169.393 173.307 169.379 173.882 169.379C176.125 169.401 178.367 169.388 180.61 169.388H208.021C208.877 169.388 208.925 169.434 208.93 170.276C208.931 172.498 208.907 174.722 208.925 176.949C208.931 177.735 208.931 177.551 208.93 177.904C208.925 178.298 208.405 178.196 208.16 178.196C205.548 178.198 202.942 178.198 200.329 178.198C199.005 178.198 197.678 178.204 196.35 178.196C196.005 178.189 195.717 178.17 195.717 178.657C195.717 179.529 195.726 180.397 195.717 181.273C195.717 207.521 195.707 234.625 195.715 260.872C195.715 261.876 195.578 261.691 194.059 261.699C191.764 261.663 189.387 261.691 187.064 261.691C186.209 261.691 186.298 261.673 186.298 260.831C186.298 247.229 186.298 233.622 186.297 220.016Z" fill="#C3C1BB"/>
<path fill-rule="evenodd" clip-rule="evenodd" d="M160.77 213.199C163.417 213.199 166.073 213.22 168.723 213.185C169.309 213.175 169.428 213.362 169.412 213.901C169.373 215.044 169.386 216.182 169.408 217.326C169.412 217.702 169.337 217.857 168.917 217.857C163.448 217.846 157.981 217.846 152.513 217.857C152.09 217.857 152.002 217.717 152.011 217.331C152.029 216.13 152.039 214.926 152.008 213.722C152 213.272 152.16 213.185 152.57 213.189C155.307 213.209 158.035 213.199 160.77 213.199Z" fill="#CFA177"/>
<path fill-rule="evenodd" clip-rule="evenodd" d="M250.637 259.696C250.507 258.619 250.388 257.536 250.272 256.457C250.175 255.478 250.087 254.506 249.991 253.531C249.877 252.499 249.755 251.477 249.637 250.446C249.53 249.5 249.418 248.551 249.297 247.595C249.186 246.636 249.061 245.673 248.95 244.706C248.867 243.95 248.789 243.188 248.709 242.425C248.623 241.608 248.529 240.79 248.447 239.968C248.363 239.188 248.289 238.417 248.208 237.642C248.107 236.772 248.008 235.909 247.905 235.045C247.809 234.194 247.711 233.344 247.611 232.491C247.51 231.657 247.412 230.825 247.319 229.987C247.23 229.228 247.142 228.471 247.06 227.711C246.969 226.89 246.884 226.071 246.797 225.249C246.722 224.469 246.64 223.681 246.552 222.902C246.471 222.156 246.391 221.41 246.305 220.67C246.21 219.812 246.105 218.959 246.002 218.096C245.906 217.254 245.799 216.412 245.701 215.569C245.621 214.835 245.533 214.099 245.447 213.361C245.361 212.572 245.282 211.781 245.186 210.994C245.12 210.359 245.064 209.72 244.991 209.083C244.91 208.3 244.825 207.518 244.737 206.74C244.635 205.877 244.543 205.021 244.441 204.163C244.348 203.321 244.237 202.478 244.149 201.636C244.042 200.778 243.949 199.919 243.848 199.061C243.757 198.294 243.676 197.531 243.594 196.76C243.521 196.122 243.459 195.489 243.389 194.849C243.308 194.032 243.215 193.207 243.125 192.383C243.052 191.639 242.969 190.883 242.884 190.136C242.81 189.459 242.722 188.785 242.637 188.114C242.536 187.282 242.433 186.447 242.336 185.607C242.23 184.705 242.124 183.8 242.03 182.896C241.94 182.11 241.867 181.315 241.785 180.527C241.702 179.728 241.613 178.932 241.528 178.133C241.432 177.26 241.335 176.387 241.235 175.513C241.141 174.686 241.037 173.854 240.939 173.029C240.861 172.301 240.773 171.577 240.687 170.844C240.626 170.312 240.564 169.768 240.499 169.239C240.473 169.055 240.459 168.801 240.275 168.781H236.61C236.603 168.781 236.594 168.78 236.587 168.78H236.579C236.573 168.78 236.568 168.781 236.56 168.781H235.356C235.347 168.781 235.332 168.78 235.327 168.78H233.75H233.735H233.04H233.035C233.035 168.78 233.03 168.781 233.023 168.781H232.138C232.131 168.781 232.115 168.78 232.105 168.78H231.871C231.003 168.781 230.135 168.781 229.268 168.78C229.188 168.78 229.102 168.775 229.02 168.781C228.796 168.827 228.633 168.925 228.618 169.185C228.576 169.967 228.444 170.732 228.356 171.512C228.265 172.327 228.18 173.151 228.095 173.968C228.012 174.728 227.936 175.487 227.848 176.246C227.771 176.961 227.687 177.67 227.604 178.385C227.501 179.197 227.399 180.011 227.304 180.819C227.198 181.719 227.093 182.611 226.993 183.508C226.907 184.251 226.835 185.001 226.751 185.74C226.655 186.602 226.549 187.456 226.445 188.313C226.347 189.161 226.253 189.999 226.153 190.843C226.041 191.824 225.917 192.803 225.805 193.783C225.71 194.61 225.611 195.437 225.512 196.266C225.417 197.13 225.31 197.996 225.207 198.862C225.105 199.706 225.015 200.549 224.916 201.392C224.799 202.411 224.678 203.43 224.564 204.448C224.483 205.181 224.401 205.905 224.323 206.634C224.221 207.507 224.12 208.38 224.019 209.254C223.92 210.105 223.822 210.955 223.726 211.81C223.62 212.725 223.519 213.645 223.415 214.563C223.33 215.339 223.262 216.114 223.176 216.893C223.076 217.744 222.982 218.609 222.883 219.465C222.783 220.302 222.681 221.137 222.583 221.967C222.48 222.84 222.37 223.717 222.272 224.591C222.174 225.479 222.083 226.371 221.986 227.26C221.893 228.084 221.79 228.911 221.691 229.739C221.583 230.6 221.489 231.457 221.383 232.312C221.302 233.046 221.22 233.767 221.132 234.496C221.046 235.257 220.965 236.012 220.883 236.772C220.784 237.65 220.69 238.526 220.587 239.397C220.489 240.24 220.384 241.08 220.291 241.923C220.185 242.781 220.086 243.641 219.99 244.499C219.897 245.264 219.815 246.034 219.736 246.799C219.654 247.581 219.566 248.359 219.48 249.145C219.366 250.07 219.255 250.998 219.141 251.921C219.045 252.743 218.936 253.56 218.84 254.381C218.752 255.123 218.676 255.867 218.586 256.611C218.503 257.409 218.415 258.207 218.326 259.006C218.264 259.596 218.195 260.182 218.135 260.774C218.129 260.839 218.135 260.75 218.129 260.839C218.119 261.035 218.08 261.494 218.08 261.691H218.546H225.876C225.893 261.678 225.917 261.707 225.933 261.691C226.321 261.645 226.508 261.831 226.516 261.447C226.531 260.636 226.689 259.54 226.734 258.733C226.782 257.971 226.876 257.217 226.936 256.455C226.997 255.724 227.084 254.995 227.146 254.269C227.203 253.692 227.251 253.114 227.304 252.536C227.366 251.84 227.43 251.14 227.5 250.444C227.56 249.868 227.61 249.292 227.664 248.714C227.742 247.97 227.817 247.224 227.881 246.48C227.939 245.7 228.037 244.932 228.082 244.15C228.128 243.491 228.211 242.835 228.278 242.172C228.338 241.608 228.392 241.038 228.45 240.47C228.522 239.719 228.603 238.965 228.66 238.213C228.719 237.43 228.817 236.66 228.862 235.88C228.9 235.221 228.989 234.563 229.058 233.904C229.118 233.337 229.17 232.766 229.225 232.201C229.297 231.445 229.382 230.697 229.44 229.946C229.497 229.161 229.593 228.391 229.645 227.613C229.681 226.95 229.777 226.294 229.839 225.633C229.899 225.068 229.951 224.497 230.007 223.93C230.077 223.185 230.155 222.442 230.217 221.692C230.279 220.919 230.38 220.147 230.427 219.367C230.453 218.851 230.526 218.343 230.575 217.825C230.65 217.104 230.713 216.381 230.788 215.66C230.857 214.915 230.927 214.169 230.998 213.423C231.058 212.65 231.159 211.873 231.205 211.095C231.233 210.591 231.299 210.086 231.35 209.58C231.42 208.845 231.493 208.106 231.565 207.369C231.635 206.633 231.713 205.894 231.775 205.159C231.838 204.378 231.933 203.606 231.983 202.825C232.024 202.161 232.115 201.492 232.18 200.826C232.242 200.267 232.286 199.706 232.34 199.144C232.416 198.39 232.491 197.643 232.556 196.886C232.615 196.104 232.711 195.336 232.763 194.555C232.805 193.895 232.893 193.237 232.953 192.578C233.014 192.013 233.066 191.443 233.121 190.874C233.193 190.123 233.269 189.371 233.334 188.62C233.403 187.886 233.468 187.157 233.541 186.429C233.567 186.121 233.561 185.812 233.662 185.516C233.75 185.25 233.891 185.133 234.163 185.123C234.269 185.122 234.381 185.122 234.484 185.123C234.837 185.14 235.019 185.316 235.091 185.669C235.234 186.366 235.239 187.064 235.317 187.762C235.4 188.472 235.466 189.179 235.532 189.884C235.602 190.567 235.669 191.25 235.736 191.935C235.811 192.648 235.879 193.36 235.946 194.078C236.016 194.758 236.079 195.443 236.151 196.122C236.221 196.832 236.291 197.539 236.363 198.245C236.426 198.916 236.493 199.598 236.56 200.272C236.63 200.993 236.706 201.716 236.776 202.436C236.843 203.121 236.905 203.802 236.976 204.494C237.043 205.194 237.115 205.899 237.186 206.605C237.256 207.289 237.318 207.974 237.383 208.656C237.457 209.361 237.528 210.07 237.595 210.776C237.667 211.455 237.73 212.142 237.797 212.826C237.868 213.54 237.937 214.254 238.012 214.965C238.08 215.65 238.144 216.334 238.21 217.018C238.282 217.724 238.354 218.431 238.422 219.138C238.492 219.821 238.554 220.502 238.619 221.189C238.697 221.9 238.767 222.615 238.839 223.328C238.902 224.014 238.967 224.697 239.039 225.383C239.106 226.091 239.177 226.793 239.249 227.501C239.319 228.171 239.381 228.855 239.453 229.528C239.519 230.247 239.599 230.968 239.661 231.691C239.734 232.373 239.799 233.057 239.861 233.741C239.928 234.446 240.003 235.151 240.074 235.857C240.143 236.541 240.203 237.227 240.275 237.912C240.341 238.62 240.413 239.32 240.483 240.03C240.556 240.715 240.617 241.398 240.687 242.081C240.757 242.796 240.833 243.507 240.901 244.222C240.958 244.815 240.999 245.406 241.051 245.995C241.116 246.632 241.195 247.265 241.253 247.901C241.302 248.338 241.326 248.777 241.374 249.217C241.432 249.762 241.494 250.316 241.546 250.868C241.613 251.543 241.675 252.232 241.738 252.911C241.794 253.469 241.857 254.031 241.917 254.586C241.95 254.944 241.979 255.307 242.013 255.664C242.072 256.242 242.142 256.813 242.186 257.385C242.24 258.013 242.316 258.645 242.38 259.27C242.448 259.923 242.516 261.049 242.601 261.699C242.925 261.691 242.722 261.691 243.142 261.691C243.518 261.691 243.899 261.699 244.276 261.699C246.259 261.697 248.245 261.697 250.232 261.699H250.832C250.906 261.699 250.906 261.718 250.906 261.668C250.805 261.274 250.689 260.1 250.637 259.696Z" fill="#C3C1BB"/>
<path fill-rule="evenodd" clip-rule="evenodd" d="M218.12 261.416C218.248 261.556 218.416 261.618 218.58 261.69C218.518 261.69 218.458 261.686 218.396 261.69C218.155 261.699 218.069 261.654 218.12 261.416Z" fill="#C3C1BB"/>
<path fill-rule="evenodd" clip-rule="evenodd" d="M225.959 261.647C225.957 261.664 225.957 261.678 225.957 261.689H225.912C225.931 261.678 225.951 261.664 225.959 261.647Z" fill="#C3C1BB"/>
<path fill-rule="evenodd" clip-rule="evenodd" d="M265.819 261.223V169.207C265.895 169.003 266.045 168.917 266.164 168.78H274.895C275.002 168.958 275.145 169.072 275.232 169.282V261.223C275.126 261.366 275.007 261.511 274.895 261.654H266.113C265.99 261.543 265.905 261.382 265.819 261.223Z" fill="#C3C1BB"/>
<path fill-rule="evenodd" clip-rule="evenodd" d="M265.022 176.265C264.91 176.408 264.76 176.495 264.684 176.701C264.684 176.265 264.684 176.265 265.022 176.265Z" fill="#C3C1BB"/>
<path d="M45.5845 295.522V278.408H47.9729L52.1813 293.531L56.4044 278.408H58.7731V295.522H57.3893V279.634L52.9611 295.522H51.4291L46.97 279.634V295.522H45.5845Z" fill="#C3C1BB"/>
<path d="M63.5675 286.956C63.5675 289.533 63.8638 291.443 64.445 292.68C65.0278 293.914 65.9298 294.536 67.141 294.536C68.3604 294.536 69.2639 293.921 69.8419 292.688C70.428 291.461 70.7112 289.551 70.7112 286.956C70.7112 284.362 70.428 282.453 69.8419 281.219C69.2639 279.991 68.3604 279.376 67.141 279.376C65.9298 279.376 65.0278 279.996 64.445 281.233C63.8638 282.469 63.5675 284.382 63.5675 286.956ZM62.1023 286.956C62.1023 283.898 62.5109 281.655 63.3217 280.222C64.1406 278.788 65.412 278.072 67.141 278.072C68.8879 278.072 70.1691 278.788 70.9815 280.218C71.7988 281.647 72.2025 283.894 72.2025 286.956C72.2025 290.021 71.7988 292.271 70.9766 293.711C70.1593 295.151 68.8781 295.873 67.141 295.873C65.4251 295.873 64.1487 295.151 63.3298 293.711C62.5109 292.271 62.1023 290.021 62.1023 286.956Z" fill="#C3C1BB"/>
<path d="M77.0146 294.231H78.9975C80.847 294.231 82.1119 293.735 82.7957 292.735C83.4778 291.74 83.8214 289.819 83.8214 286.977C83.8214 284.118 83.4778 282.182 82.7957 281.179C82.1119 280.177 80.847 279.675 78.9975 279.675H77.0146V294.231ZM75.5233 295.522V278.408H79.0871C81.3907 278.408 83.0106 279.047 83.9532 280.315C84.8893 281.588 85.3566 283.805 85.3566 286.956C85.3566 290.103 84.8893 292.318 83.9435 293.598C83.0008 294.879 81.3858 295.522 79.0871 295.522H75.5233Z" fill="#C3C1BB"/>
<path d="M88.6873 295.522V278.408H96.5376V279.747H90.2372V285.925H95.8897V287.236H90.2372V294.187H96.5376V295.522H88.6873Z" fill="#C3C1BB"/>
<path d="M100.956 286.296H102.42C104.014 286.296 105.147 286.031 105.816 285.492C106.485 284.96 106.822 284.077 106.822 282.851C106.822 281.744 106.505 280.94 105.87 280.437C105.233 279.936 104.217 279.675 102.815 279.675H100.956V286.296ZM99.509 295.522V278.408H102.859C104.71 278.408 106.078 278.757 106.941 279.45C107.812 280.139 108.242 281.218 108.242 282.682C108.242 283.774 108.032 284.663 107.612 285.349C107.198 286.032 106.557 286.539 105.679 286.864C106.449 287.089 106.999 287.468 107.341 288.012C107.68 288.548 107.885 289.427 107.962 290.637C107.986 290.995 108.007 291.494 108.032 292.139C108.095 293.93 108.365 295.06 108.838 295.522H107.179C106.902 295.197 106.729 294.145 106.662 292.383C106.641 291.897 106.622 291.522 106.604 291.25C106.531 289.72 106.286 288.719 105.878 288.251C105.464 287.784 104.72 287.551 103.646 287.551H100.956V295.522H99.509Z" fill="#C3C1BB"/>
<path d="M111.697 295.522V278.408H113.33L119.852 293.337V278.408H121.207V295.522H119.538L113.055 280.891V295.522H111.697Z" fill="#C3C1BB"/>
<path d="M133.296 295.522V279.789H129.388V278.408H138.662V279.789H134.785V295.522H133.296Z" fill="#C3C1BB"/>
<path d="M141.008 295.522V278.408H142.429V285.668H149.205V278.408H150.625V295.522H149.205V287.001H142.429V295.522H141.008Z" fill="#C3C1BB"/>
<path d="M156.121 288.84H160.743L158.441 280.294L156.121 288.84ZM153.07 295.521L157.676 278.409H159.363L163.928 295.521H162.479L161.035 290.152H155.879L154.407 295.521H153.07Z" fill="#C3C1BB"/>
<path d="M166.401 278.409H167.855V295.523H166.401V278.409Z" fill="#C3C1BB"/>
<path d="M178.834 294.231H180.84C182.29 294.231 183.336 293.95 183.964 293.38C184.597 292.813 184.916 291.88 184.916 290.588C184.916 289.442 184.596 288.593 183.949 288.048C183.31 287.506 182.308 287.236 180.951 287.236H178.834V294.231ZM178.834 285.971H180.879C182.116 285.971 183.008 285.705 183.575 285.178C184.132 284.652 184.413 283.812 184.413 282.658C184.413 281.577 184.132 280.81 183.575 280.359C183.008 279.91 182.043 279.675 180.661 279.675H178.834V285.971ZM177.408 295.522V278.408H180.444C182.387 278.408 183.775 278.741 184.609 279.4C185.441 280.054 185.859 281.131 185.859 282.615C185.859 283.612 185.675 284.426 185.312 285.067C184.941 285.705 184.381 286.192 183.625 286.518C184.578 286.9 185.288 287.416 185.734 288.074C186.185 288.728 186.408 289.565 186.408 290.588C186.408 292.271 185.975 293.513 185.089 294.317C184.21 295.12 182.852 295.522 181.014 295.522H177.408Z" fill="#C3C1BB"/>
<path d="M191.367 288.84H195.984L193.685 280.294L191.367 288.84ZM188.313 295.521L192.92 278.409H194.602L199.168 295.521H197.723L196.274 290.152H191.121L189.649 295.521H188.313Z" fill="#C3C1BB"/>
<path d="M203.003 286.296H204.473C206.066 286.296 207.194 286.031 207.863 285.492C208.535 284.96 208.871 284.077 208.871 282.851C208.871 281.744 208.548 280.94 207.913 280.437C207.277 279.936 206.266 279.675 204.866 279.675H203.003V286.296ZM201.558 295.522V278.408H204.908C206.761 278.408 208.125 278.757 208.996 279.45C209.86 280.139 210.29 281.218 210.29 282.682C210.29 283.774 210.085 284.663 209.667 285.349C209.243 286.032 208.6 286.539 207.734 286.864C208.501 287.089 209.053 287.468 209.39 288.012C209.729 288.548 209.932 289.427 210.013 290.637C210.031 290.995 210.057 291.494 210.08 292.139C210.142 293.93 210.416 295.06 210.886 295.522H209.226C208.952 295.197 208.776 294.145 208.713 292.383C208.687 291.897 208.669 291.522 208.656 291.25C208.582 289.72 208.338 288.719 207.925 288.251C207.513 287.784 206.767 287.551 205.694 287.551H203.003V295.522H201.558Z" fill="#C3C1BB"/>
<path d="M223.783 285.023C224.504 284.495 225.043 283.937 225.381 283.375C225.728 282.81 225.901 282.198 225.901 281.542C225.901 280.918 225.74 280.438 225.424 280.085C225.105 279.738 224.667 279.562 224.105 279.562C223.578 279.562 223.148 279.738 222.807 280.095C222.48 280.445 222.313 280.91 222.313 281.47C222.313 282.001 222.43 282.541 222.664 283.105C222.891 283.673 223.263 284.311 223.783 285.023ZM227.387 292.695L223.455 286.935C222.542 287.509 221.857 288.14 221.399 288.829C220.939 289.514 220.707 290.265 220.707 291.072C220.707 292.082 221.02 292.918 221.648 293.573C222.28 294.231 223.076 294.556 224.063 294.556C224.729 294.556 225.339 294.4 225.901 294.089C226.462 293.776 226.954 293.309 227.387 292.695ZM229.318 295.522L228.164 293.874C227.597 294.537 226.954 295.023 226.254 295.354C225.544 295.686 224.759 295.844 223.893 295.844C222.508 295.844 221.389 295.422 220.541 294.568C219.687 293.718 219.265 292.603 219.265 291.224C219.265 290.248 219.532 289.338 220.059 288.498C220.603 287.655 221.489 286.768 222.726 285.837C222.098 285.001 221.643 284.249 221.359 283.569C221.075 282.887 220.929 282.213 220.929 281.542C220.929 280.589 221.209 279.824 221.775 279.253C222.332 278.677 223.076 278.388 224.017 278.388C225.043 278.388 225.84 278.654 226.41 279.184C226.983 279.717 227.27 280.451 227.27 281.394C227.27 282.276 227.052 283.09 226.62 283.831C226.192 284.576 225.508 285.322 224.567 286.056L228.076 291.321C228.294 290.779 228.46 290.222 228.576 289.638C228.69 289.058 228.755 288.463 228.771 287.849H230.095C230.072 288.759 229.961 289.601 229.767 290.367C229.569 291.144 229.294 291.863 228.929 292.537L230.9 295.522H229.318Z" fill="#C3C1BB"/>
<path d="M244.414 287.047H249.531V295.522H248.406L248.247 293.777C247.799 294.458 247.27 294.979 246.656 295.335C246.042 295.692 245.37 295.872 244.636 295.872C242.941 295.872 241.687 295.141 240.87 293.686C240.064 292.235 239.657 289.99 239.657 286.956C239.657 283.867 240.071 281.609 240.898 280.181C241.723 278.755 243.021 278.042 244.797 278.042C246.156 278.042 247.234 278.474 248.027 279.33C248.825 280.193 249.287 281.422 249.412 283.03H247.968C247.838 281.865 247.499 280.965 246.943 280.33C246.388 279.69 245.661 279.376 244.774 279.376C243.532 279.376 242.617 279.991 242.029 281.209C241.44 282.431 241.149 284.344 241.149 286.956C241.149 289.551 241.44 291.46 242.02 292.69C242.602 293.922 243.493 294.537 244.706 294.537C245.871 294.537 246.754 294.005 247.342 292.95C247.929 291.893 248.226 290.322 248.226 288.243H244.414V287.047Z" fill="#C3C1BB"/>
<path d="M254.505 286.296H255.972C257.561 286.296 258.696 286.031 259.365 285.492C260.037 284.96 260.369 284.077 260.369 282.851C260.369 281.744 260.052 280.94 259.415 280.437C258.777 279.936 257.761 279.675 256.368 279.675H254.505V286.296ZM253.058 295.522V278.408H256.408C258.271 278.408 259.622 278.757 260.488 279.45C261.359 280.139 261.794 281.218 261.794 282.682C261.794 283.774 261.587 284.663 261.169 285.349C260.744 286.032 260.101 286.539 259.236 286.864C260.003 287.089 260.548 287.468 260.89 288.012C261.229 288.548 261.434 289.427 261.514 290.637C261.533 290.995 261.559 291.494 261.579 292.139C261.646 293.93 261.919 295.06 262.386 295.522H260.727C260.451 295.197 260.278 294.145 260.211 292.383C260.19 291.897 260.174 291.522 260.156 291.25C260.084 289.72 259.839 288.719 259.428 288.251C259.016 287.784 258.271 287.551 257.198 287.551H254.505V295.522H253.058Z" fill="#C3C1BB"/>
<path d="M265.292 278.409H266.743V295.523H265.292V278.409Z" fill="#C3C1BB"/>
<path d="M270.458 295.522V278.408H271.837V294.231H278.175V295.522H270.458Z" fill="#C3C1BB"/>
<path d="M280.754 295.522V278.408H282.131V294.231H288.471V295.522H280.754Z" fill="#C3C1BB"/>
<path d="M169.63 278.215H164.707V279.583H169.63V278.215Z" fill="#C3C1BB"/>
<path d="M169.638 294.317H164.746V295.686H169.638V294.317Z" fill="#C3C1BB"/>
<path d="M286.058 161.04H287.516V165.124H288.505V161.04H289.958V160.209H286.058V161.04Z" fill="#C3C1BB"/>
<path d="M293.842 160.209L292.961 163.561L292.067 160.209H290.582V165.124H291.509V161.259L292.476 165.124H293.433L294.406 161.259V165.124H295.33V160.209H293.842Z" fill="#C3C1BB"/>
<path d="M290.694 168.799C287.309 168.799 284.559 166.051 284.559 162.664C284.559 159.277 287.309 156.532 290.694 156.532C294.086 156.532 296.826 159.277 296.826 162.664C296.826 166.051 294.086 168.799 290.694 168.799ZM290.694 155.433C286.697 155.433 283.459 158.669 283.459 162.664C283.459 166.663 286.697 169.899 290.694 169.899C294.686 169.899 297.927 166.663 297.927 162.664C297.927 158.669 294.686 155.433 290.694 155.433Z" fill="#C3C1BB"/>
</g>
</g>
<defs>
<clipPath id="clip0_100_143">
<rect width="343.512" height="337" fill="white"/>
</clipPath>
</defs>
</svg>
